<svg width="620" height="327" viewBox="0 0 620 327" fill="none" xmlns="http://www.w3.org/2000/svg">
<path d="M0.0129395 5.2022H8.20294V82.6751H0.0129395V5.2022ZM61.4379 24.0172C68.7439 24.0172 74.6089 26.12 78.9259 30.3255C83.2419 34.6421 85.3449 40.8395 85.3449 48.9187V82.6751H77.4869V49.6935C77.4869 43.6062 75.9369 39.0687 72.9489 35.859C69.9609 32.6494 65.6439 31.1004 59.9999 31.1004C53.6909 31.1004 48.8219 32.9814 45.1689 36.6339C41.5169 40.3966 39.6359 45.5989 39.6359 52.1283V82.6751H31.7769V24.4593H39.3039V35.1951C41.4059 31.6535 44.3939 28.8867 48.2689 26.894C52.0309 25.0131 56.4579 24.0172 61.4379 24.0172ZM122.31 83.2281C117.551 83.2281 113.124 82.5641 108.808 81.1253C104.491 79.7974 101.06 78.1375 98.6259 76.0347L102.167 69.8365C104.602 71.7182 107.701 73.268 111.353 74.4849C115.006 75.7027 118.879 76.3667 122.863 76.3667C128.176 76.3667 132.16 75.4809 134.706 73.821C137.252 72.1611 138.468 69.8365 138.468 66.8487C138.468 64.7459 137.805 62.9751 136.366 61.7573C134.927 60.5395 133.156 59.6545 131.053 58.9905C128.95 58.4367 126.073 57.7727 122.531 57.2197C117.773 56.3339 114.009 55.4489 111.132 54.453C108.254 53.5672 105.82 52.0182 103.827 49.8045C101.724 47.5908 100.728 44.4921 100.728 40.6184C100.728 35.7481 102.72 31.7644 106.816 28.6649C110.91 25.5661 116.555 24.0172 123.749 24.0172C127.512 24.0172 131.275 24.4593 135.038 25.456C138.8 26.4519 141.9 27.7798 144.335 29.4397L140.904 35.7481C136.145 32.4283 130.389 30.7684 123.749 30.7684C118.768 30.7684 115.006 31.6535 112.46 33.4243C109.914 35.1951 108.586 37.5189 108.586 40.3966C108.586 42.6103 109.361 44.3811 110.8 45.709C112.238 47.0378 114.009 48.0337 116.113 48.5867C118.215 49.2507 121.203 49.9146 124.967 50.5794C129.614 51.4644 133.378 52.3502 136.145 53.2352C138.911 54.121 141.346 55.67 143.339 57.7728C145.331 59.8755 146.327 62.8642 146.327 66.6268C146.327 71.7182 144.224 75.7027 140.018 78.6905C135.702 81.6791 129.836 83.2281 122.31 83.2281ZM191.483 79.1334C190.044 80.4613 188.162 81.4573 186.059 82.122C183.846 82.8961 181.522 83.2281 179.197 83.2281C173.775 83.2281 169.568 81.7892 166.58 78.8014C163.592 75.8128 162.153 71.7182 162.153 66.2948V31.1004H151.75V24.4593H162.153V11.7316H170.011V24.4593H187.719V31.1004H170.011V65.852C170.011 69.2835 170.897 71.9393 172.668 73.7101C174.328 75.5918 176.873 76.4768 180.083 76.4768C181.743 76.4768 183.293 76.2558 184.842 75.7028C186.28 75.1489 187.608 74.485 188.715 73.489L191.483 79.1334ZM205.759 24.4593H213.618V82.6751H205.759V24.4593ZM209.744 11.7316C208.084 11.7316 206.755 11.1786 205.648 10.0717C204.542 8.96484 203.989 7.63695 203.989 6.08719C203.989 4.64836 204.542 3.32044 205.648 2.21358C206.755 1.10673 208.084 0.553711 209.744 0.553711C211.404 0.553711 212.732 1.10671 213.839 2.10265C214.945 3.20951 215.499 4.53824 215.499 5.97707C215.499 7.63696 214.945 8.96484 213.839 10.0717C212.732 11.1786 211.404 11.7316 209.744 11.7316ZM266.189 79.1334C264.75 80.4613 262.868 81.4573 260.766 82.122C258.552 82.8961 256.228 83.2281 253.903 83.2281C248.481 83.2281 244.274 81.7892 241.287 78.8014C238.298 75.8128 236.859 71.7182 236.859 66.2948V31.1004H226.456V24.4593H236.859V11.7316H244.717V24.4593H262.425V31.1004H244.717V65.852C244.717 69.2835 245.603 71.9393 247.374 73.7101C249.034 75.5918 251.58 76.4768 254.789 76.4768C256.449 76.4768 257.999 76.2558 259.548 75.7028C260.987 75.1489 262.315 74.485 263.421 73.489L266.189 79.1334ZM332.926 24.4593V82.6751H325.4V72.0502C323.297 75.5918 320.53 78.3586 316.878 80.2403C313.226 82.2322 309.131 83.2281 304.482 83.2281C296.846 83.2281 290.869 81.1253 286.553 76.8096C282.126 72.6032 279.913 66.4058 279.913 58.2156V24.4593H287.77V57.4408C287.77 63.5281 289.32 68.1766 292.308 71.3862C295.296 74.5959 299.613 76.1449 305.257 76.1449C311.344 76.1449 316.214 74.2639 319.755 70.5004C323.297 66.8487 325.068 61.6464 325.068 55.006V24.4593H332.926ZM385.608 79.1334C384.17 80.4613 382.288 81.4573 380.185 82.122C377.971 82.8961 375.647 83.2281 373.323 83.2281C367.9 83.2281 363.694 81.7892 360.706 78.8014C357.717 75.8128 356.279 71.7182 356.279 66.2948V31.1004H345.876V24.4593H356.279V11.7316H364.137V24.4593H381.845V31.1004H364.137V65.852C364.137 69.2835 365.023 71.9393 366.793 73.7101C368.453 75.5918 370.999 76.4768 374.209 76.4768C375.868 76.4768 377.418 76.2558 378.967 75.7028C380.406 75.1489 381.734 74.485 382.841 73.489L385.608 79.1334Z" fill="#434242"/>
<path d="M448.477 56.0021H399.779C400.222 62.0894 402.546 66.9589 406.752 70.6115C410.958 74.3742 416.27 76.2559 422.689 76.2559C426.341 76.2559 429.662 75.5919 432.65 74.264C435.638 73.0462 438.295 71.1645 440.507 68.6196L444.935 73.7102C442.389 76.8097 439.18 79.1336 435.306 80.7935C431.432 82.4542 427.116 83.2282 422.467 83.2282C416.491 83.2282 411.179 81.9003 406.641 79.3546C401.992 76.8097 398.341 73.3782 395.795 68.8407C393.249 64.3031 391.921 59.2117 391.921 53.5673C391.921 47.9229 393.138 42.8315 395.684 38.294C398.119 33.7564 401.55 30.3257 405.866 27.78C410.183 25.2343 414.942 24.0173 420.365 24.0173C425.788 24.0173 430.547 25.2343 434.863 27.78C439.18 30.3257 442.5 33.7564 444.935 38.1838C447.37 42.7214 448.587 47.812 448.587 53.5673L448.477 56.0021ZM420.365 30.7686C414.72 30.7686 410.072 32.5394 406.309 36.081C402.435 39.7328 400.333 44.3813 399.779 50.1366H441.061C440.507 44.3813 438.405 39.7328 434.642 36.081C430.768 32.5394 426.009 30.7686 420.365 30.7686ZM517.427 83.2282C511.783 83.2282 506.802 81.9003 502.265 79.3546C497.727 76.8097 494.186 73.3782 491.64 68.8407C489.094 64.3031 487.766 59.2117 487.766 53.5673C487.766 47.9229 489.094 42.8315 491.64 38.294C494.186 33.7564 497.727 30.3257 502.265 27.78C506.802 25.2343 511.783 24.0173 517.427 24.0173C523.072 24.0173 528.052 25.2343 532.59 27.78C537.127 30.3257 540.669 33.7564 543.215 38.294C545.76 42.8315 546.977 47.9229 546.977 53.5673C546.977 59.2117 545.76 64.3031 543.215 68.8407C540.669 73.3782 537.127 76.8097 532.59 79.3546C528.052 81.9003 523.072 83.2282 517.427 83.2282ZM517.427 76.2559C521.522 76.2559 525.285 75.26 528.605 73.3782C531.815 71.4973 534.361 68.8407 536.242 65.41C538.123 61.9785 539.009 57.9947 539.009 53.5673C539.009 49.1407 538.123 45.1562 536.242 41.7255C534.361 38.294 531.815 35.5272 528.605 33.6455C525.285 31.7645 521.522 30.8787 517.427 30.8787C513.332 30.8787 509.569 31.7645 506.36 33.6455C503.04 35.5272 500.494 38.294 498.612 41.7255C496.731 45.1562 495.735 49.1407 495.735 53.5673C495.735 57.9947 496.731 61.9785 498.612 65.41C500.494 68.8407 503.04 71.4973 506.36 73.3782C509.569 75.26 513.332 76.2559 517.427 76.2559ZM582.284 6.64116C578.852 6.64116 576.307 7.52617 574.646 9.4079C572.876 11.2896 571.991 13.9455 571.991 17.598V24.4594H589.92V31.1006H572.212V82.6752H564.353V31.1006H553.95V24.4594H564.353V17.2661C564.353 11.9536 565.903 7.74801 569.002 4.64848C571.991 1.54976 576.307 0 581.952 0C584.164 0 586.267 0.331985 588.371 0.885813C590.474 1.54977 592.133 2.43557 593.572 3.65255L590.916 9.51884C588.592 7.6371 585.714 6.64116 582.284 6.64116Z" fill="#434242"/>
<path d="M81.968 113.439V192.363H73.963V129.224L42.958 182.328H39.011L8.00598 129.562V192.363H0V113.439H6.87799L41.153 171.955L75.09 113.439H81.968ZM130.224 192.926C124.474 192.926 119.4 191.573 114.777 188.98C110.155 186.387 106.547 182.892 103.954 178.269C101.36 173.646 100.008 168.46 100.008 162.71C100.008 156.96 101.36 151.773 103.954 147.151C106.547 142.528 110.155 139.033 114.777 136.439C119.4 133.847 124.474 132.606 130.224 132.606C135.975 132.606 141.048 133.847 145.67 136.439C150.293 139.033 153.901 142.528 156.494 147.151C159.088 151.773 160.328 156.96 160.328 162.71C160.328 168.46 159.088 173.646 156.494 178.269C153.901 182.892 150.293 186.387 145.67 188.98C141.048 191.573 135.975 192.926 130.224 192.926ZM130.224 185.824C134.396 185.824 138.229 184.808 141.612 182.892C144.881 180.975 147.475 178.269 149.391 174.774C151.308 171.279 152.21 167.22 152.21 162.71C152.21 158.2 151.308 154.141 149.391 150.646C147.475 147.151 144.881 144.332 141.612 142.415C138.229 140.498 134.396 139.596 130.224 139.596C126.053 139.596 122.219 140.498 118.949 142.415C115.567 144.332 112.974 147.151 111.057 150.646C109.14 154.141 108.126 158.2 108.126 162.71C108.126 167.22 109.14 171.279 111.057 174.774C112.974 178.269 115.567 180.975 118.949 182.892C122.219 184.808 126.053 185.824 130.224 185.824ZM230.795 108.703V192.363H223.128V180.636C220.76 184.583 217.604 187.627 213.657 189.769C209.711 191.912 205.201 192.926 200.24 192.926C194.716 192.926 189.642 191.686 185.132 189.093C180.622 186.499 177.127 183.004 174.534 178.382C171.941 173.759 170.701 168.573 170.701 162.71C170.701 156.847 171.941 151.66 174.534 147.038C177.127 142.415 180.622 138.92 185.132 136.327C189.642 133.847 194.716 132.606 200.24 132.606C205.089 132.606 209.373 133.621 213.319 135.538C217.153 137.567 220.31 140.498 222.79 144.332V108.703H230.795ZM200.917 185.824C205.089 185.824 208.809 184.808 212.192 182.892C215.462 180.975 218.168 178.269 220.084 174.774C222.001 171.279 222.903 167.22 222.903 162.71C222.903 158.2 222.001 154.141 220.084 150.646C218.168 147.151 215.462 144.332 212.192 142.415C208.809 140.498 205.089 139.596 200.917 139.596C196.746 139.596 192.912 140.498 189.642 142.415C186.26 144.332 183.667 147.151 181.75 150.646C179.833 154.141 178.819 158.2 178.819 162.71C178.819 167.22 179.833 171.279 181.75 174.774C183.667 178.269 186.26 180.975 189.642 182.892C192.912 184.808 196.746 185.824 200.917 185.824ZM304.758 165.191H255.149C255.6 171.391 257.968 176.353 262.252 180.073C266.537 183.907 271.949 185.824 278.488 185.824C282.208 185.824 285.591 185.147 288.636 183.793C291.679 182.553 294.385 180.636 296.641 178.044L301.15 183.23C298.557 186.387 295.287 188.755 291.341 190.446C287.395 192.137 282.998 192.926 278.262 192.926C272.174 192.926 266.762 191.573 262.14 188.98C257.404 186.387 253.684 182.892 251.09 178.269C248.497 173.646 247.144 168.46 247.144 162.71C247.144 156.96 248.384 151.773 250.978 147.151C253.458 142.528 256.953 139.033 261.35 136.439C265.747 133.847 270.595 132.606 276.12 132.606C281.645 132.606 286.493 133.847 290.89 136.439C295.287 139.033 298.67 142.528 301.15 147.038C303.63 151.66 304.871 156.847 304.871 162.71L304.758 165.191ZM276.12 139.484C270.37 139.484 265.635 141.287 261.801 144.895C257.855 148.617 255.713 153.352 255.149 159.215H297.204C296.641 153.352 294.498 148.617 290.665 144.895C286.719 141.287 281.871 139.484 276.12 139.484ZM328.886 144.67C330.803 140.724 333.622 137.68 337.343 135.65C341.063 133.621 345.573 132.606 351.098 132.606V140.386L349.182 140.273C342.98 140.273 338.019 142.19 334.524 146.023C331.029 149.857 329.225 155.269 329.225 162.146V192.363H321.22V133.057H328.886V144.67Z" fill="#434242"/>
<path d="M395.746 132.605C403.188 132.605 409.163 134.748 413.56 139.032C417.957 143.43 420.1 149.744 420.1 157.974V192.362H412.094V158.763C412.094 152.562 410.516 147.939 407.472 144.67C404.428 141.4 400.031 139.822 394.281 139.822C387.853 139.822 382.893 141.738 379.172 145.459C375.451 149.293 373.535 154.592 373.535 161.244V192.362H365.53V133.057H373.196V143.993C375.339 140.385 378.382 137.567 382.329 135.537C386.162 133.62 390.672 132.605 395.746 132.605Z" fill="#434242"/>
<path d="M29.0339 226.786C38.8849 226.786 46.6329 229.11 52.2769 233.869C57.9219 238.629 60.6889 245.048 60.6889 253.349C60.6889 261.651 57.9219 268.07 52.2769 272.719C46.6329 277.478 38.8849 279.802 29.0339 279.802H8.22592V304.263H0.0349121V226.786H29.0339ZM28.8129 272.608C36.4499 272.608 42.3159 270.948 46.4109 267.516C50.5059 264.196 52.4979 259.437 52.4979 253.349C52.4979 247.041 50.5059 242.281 46.4109 238.85C42.3159 235.53 36.4499 233.869 28.8129 233.869H8.22592V272.608H28.8129ZM93.4509 304.816C88.6919 304.816 84.2639 304.152 79.9479 302.713C75.6309 301.385 72.1999 299.725 69.7649 297.622L73.3069 291.423C75.7419 293.305 78.8409 294.855 82.4939 296.073C86.1459 297.29 90.0199 297.954 94.0039 297.954C99.3169 297.954 103.302 297.069 105.847 295.408C108.393 293.748 109.61 291.423 109.61 288.436C109.61 286.332 108.946 284.561 107.508 283.344C106.069 282.126 104.298 281.242 102.195 280.577C100.092 280.024 97.2139 279.36 93.6719 278.806C88.9129 277.921 85.1499 277.035 82.2719 276.039C79.3939 275.153 76.9589 273.604 74.9669 271.391C72.8649 269.177 71.8679 266.077 71.8679 262.204C71.8679 257.333 73.8609 253.349 77.9549 250.25C82.0509 247.151 87.6959 245.602 94.8899 245.602C98.6529 245.602 102.416 246.045 106.18 247.041C109.942 248.037 113.042 249.364 115.477 251.025L112.045 257.333C107.287 254.014 101.53 252.353 94.8899 252.353C89.9089 252.353 86.1459 253.239 83.5999 255.01C81.0549 256.78 79.7269 259.105 79.7269 261.983C79.7269 264.197 80.5009 265.967 81.9399 267.295C83.3789 268.623 85.1499 269.62 87.2529 270.173C89.3559 270.837 92.3439 271.501 96.1069 272.166C100.756 273.051 104.519 273.936 107.287 274.821C110.053 275.707 112.488 277.257 114.481 279.36C116.473 281.463 117.469 284.451 117.469 288.214C117.469 293.305 115.366 297.29 111.16 300.278C106.844 303.267 100.977 304.816 93.4509 304.816Z" fill="#3937DC"/>
<path d="M179.782 246.043L150.673 311.235C148.349 316.658 145.581 320.532 142.483 322.856C139.383 325.18 135.62 326.287 131.304 326.287C128.536 326.287 125.881 325.844 123.445 324.959C121.01 324.073 118.907 322.745 117.137 320.975L120.789 315.108C123.777 318.097 127.319 319.536 131.414 319.536C134.071 319.536 136.394 318.761 138.276 317.322C140.158 315.883 141.819 313.338 143.479 309.796L146.024 304.151L120.014 246.043H128.204L150.12 295.518L172.034 246.043H179.782Z" fill="#3937DC"/>
<path d="M213.318 304.815C207.563 304.815 202.471 303.598 197.934 301.052C193.395 298.507 189.743 294.965 187.197 290.427C184.651 285.889 183.323 280.798 183.323 275.152C183.323 269.508 184.651 264.417 187.197 259.878C189.743 255.341 193.395 251.909 197.934 249.364C202.471 246.819 207.563 245.601 213.318 245.601C218.299 245.601 222.837 246.597 226.821 248.479C230.695 250.47 233.795 253.348 236.118 257.112L230.252 261.096C228.371 258.218 225.936 256.005 222.948 254.566C219.959 253.127 216.75 252.463 213.318 252.463C209.112 252.463 205.349 253.348 202.028 255.23C198.598 257.112 196.052 259.878 194.17 263.31C192.288 266.741 191.293 270.726 191.293 275.152C191.293 279.691 192.288 283.564 194.17 286.996C196.052 290.427 198.598 293.083 202.028 294.965C205.349 296.846 209.112 297.843 213.318 297.843C216.75 297.843 219.959 297.179 222.948 295.74C225.936 294.3 228.371 292.197 230.252 289.32L236.118 293.304C233.795 297.068 230.695 299.945 226.71 301.827C222.726 303.819 218.299 304.815 213.318 304.815Z" fill="#3937DC"/>
<path d="M280.281 245.602C287.586 245.602 293.453 247.705 297.769 251.91C302.086 256.227 304.189 262.425 304.189 270.505V304.263H296.33V271.28C296.33 265.193 294.781 260.654 291.792 257.444C288.803 254.235 284.487 252.685 278.843 252.685C272.533 252.685 267.664 254.567 264.011 258.219C260.359 261.983 258.477 267.184 258.477 273.715V304.263H250.619V222.137H258.477V256.228C260.58 252.796 263.568 250.25 267.332 248.369C271.095 246.487 275.411 245.602 280.281 245.602Z" fill="#3937DC"/>
<path d="M349.567 304.816C343.923 304.816 338.941 303.488 334.404 300.942C329.865 298.397 326.324 294.966 323.778 290.427C321.232 285.89 319.905 280.799 319.905 275.153C319.905 269.509 321.232 264.418 323.778 259.879C326.324 255.342 329.865 251.91 334.404 249.364C338.941 246.82 343.923 245.602 349.567 245.602C355.212 245.602 360.193 246.82 364.73 249.364C369.269 251.91 372.81 255.342 375.356 259.879C377.902 264.418 379.119 269.509 379.119 275.153C379.119 280.799 377.902 285.89 375.356 290.427C372.81 294.966 369.269 298.397 364.73 300.942C360.193 303.488 355.212 304.816 349.567 304.816ZM349.567 297.843C353.663 297.843 357.425 296.847 360.746 294.966C363.955 293.084 366.501 290.427 368.383 286.997C370.265 283.565 371.15 279.581 371.15 275.153C371.15 270.727 370.265 266.742 368.383 263.311C366.501 259.879 363.955 257.112 360.746 255.231C357.425 253.349 353.663 252.464 349.567 252.464C345.472 252.464 341.709 253.349 338.499 255.231C335.179 257.112 332.633 259.879 330.751 263.311C328.87 266.742 327.874 270.727 327.874 275.153C327.874 279.581 328.87 283.565 330.751 286.997C332.633 290.427 335.179 293.084 338.499 294.966C341.709 296.847 345.472 297.843 349.567 297.843ZM395.168 222.137H403.027V304.263H395.168V222.137ZM448.738 304.816C443.094 304.816 438.112 303.488 433.575 300.942C429.037 298.397 425.495 294.966 422.949 290.427C420.404 285.89 419.076 280.799 419.076 275.153C419.076 269.509 420.404 264.418 422.949 259.879C425.495 255.342 429.037 251.91 433.575 249.364C438.112 246.82 443.094 245.602 448.738 245.602C454.383 245.602 459.364 246.82 463.901 249.364C468.44 251.91 471.981 255.342 474.527 259.879C477.073 264.418 478.291 269.509 478.291 275.153C478.291 280.799 477.073 285.89 474.527 290.427C471.981 294.966 468.44 298.397 463.901 300.942C459.364 303.488 454.383 304.816 448.738 304.816ZM448.738 297.843C452.834 297.843 456.596 296.847 459.917 294.966C463.127 293.084 465.672 290.427 467.554 286.997C469.436 283.565 470.322 279.581 470.322 275.153C470.322 270.727 469.436 266.742 467.554 263.311C465.672 259.879 463.127 257.112 459.917 255.231C456.596 253.349 452.834 252.464 448.738 252.464C444.643 252.464 440.88 253.349 437.67 255.231C434.35 257.112 431.804 259.879 429.922 263.311C428.041 266.742 427.045 270.727 427.045 275.153C427.045 279.581 428.041 283.565 429.922 286.997C431.804 290.427 434.35 293.084 437.67 294.966C440.88 296.847 444.643 297.843 448.738 297.843ZM548.241 246.045V297.18C548.241 307.03 545.807 314.446 541.047 319.205C536.177 323.964 528.872 326.288 519.132 326.288C513.708 326.288 508.617 325.513 503.858 323.964C498.988 322.304 495.004 320.09 492.015 317.323L495.999 311.346C498.767 313.892 502.198 315.773 506.293 317.212C510.278 318.651 514.483 319.315 518.911 319.315C526.326 319.315 531.75 317.655 535.181 314.225C538.612 310.793 540.383 305.37 540.383 298.175V290.759C537.948 294.412 534.738 297.29 530.864 299.171C526.88 301.053 522.452 302.049 517.693 302.049C512.27 302.049 507.289 300.831 502.862 298.397C498.324 296.073 494.893 292.641 492.347 288.325C489.801 284.008 488.473 279.138 488.473 273.715C488.473 268.291 489.801 263.422 492.347 259.105C494.893 254.789 498.324 251.468 502.752 249.143C507.178 246.82 512.159 245.602 517.693 245.602C522.674 245.602 527.101 246.598 531.085 248.59C535.07 250.582 538.28 253.46 540.715 257.223V246.045H548.241ZM518.468 295.076C522.674 295.076 526.437 294.191 529.868 292.309C533.299 290.538 535.956 287.993 537.837 284.783C539.719 281.573 540.604 277.81 540.604 273.715C540.604 269.62 539.719 265.856 537.837 262.647C535.956 259.437 533.299 257.002 529.979 255.121C526.548 253.349 522.784 252.464 518.468 252.464C514.262 252.464 510.499 253.349 507.178 255.121C503.747 256.891 501.202 259.437 499.32 262.647C497.438 265.856 496.442 269.62 496.442 273.715C496.442 277.81 497.438 281.573 499.32 284.783C501.202 287.993 503.747 290.538 507.178 292.309C510.499 294.191 514.262 295.076 518.468 295.076ZM619.188 246.045L590.078 311.236C587.755 316.659 584.987 320.533 581.888 322.858C578.789 325.181 575.026 326.288 570.71 326.288C567.942 326.288 565.286 325.845 562.851 324.96C560.416 324.075 558.313 322.747 556.542 320.976L560.195 315.11C563.183 318.098 566.725 319.537 570.82 319.537C573.476 319.537 575.8 318.762 577.682 317.323C579.564 315.884 581.224 313.339 582.884 309.797L585.43 304.152L559.42 246.045H567.61L589.525 295.519L611.44 246.045H619.188Z" fill="#3937DC"/>
</svg>
